<?xml version="1.0" encoding="UTF-8" standalone="no"?>
<!-- Created with Inkscape (http://www.inkscape.org/) -->

<svg
   xmlns:dc="http://purl.org/dc/elements/1.1/"
   xmlns:cc="http://creativecommons.org/ns#"
   xmlns:rdf="http://www.w3.org/1999/02/22-rdf-syntax-ns#"
   xmlns:svg="http://www.w3.org/2000/svg"
   xmlns="http://www.w3.org/2000/svg"
   xmlns:sodipodi="http://sodipodi.sourceforge.net/DTD/sodipodi-0.dtd"
   xmlns:inkscape="http://www.inkscape.org/namespaces/inkscape"
   width="500"
   height="500"
   id="svg3034"
   version="1.1"
   inkscape:version="0.48.3.1 r9886"
   sodipodi:docname="run.svg">
  <defs
     id="defs3036" />
  <sodipodi:namedview
     id="base"
     pagecolor="#ffffff"
     bordercolor="#666666"
     borderopacity="1.0"
     inkscape:pageopacity="0.0"
     inkscape:pageshadow="2"
     inkscape:zoom="1"
     inkscape:cx="206.5"
     inkscape:cy="251.42857"
     inkscape:document-units="px"
     inkscape:current-layer="svg3034"
     showgrid="false"
     inkscape:window-width="1360"
     inkscape:window-height="709"
     inkscape:window-x="0"
     inkscape:window-y="27"
     inkscape:window-maximized="1" />
  <metadata
     id="metadata3039">
    <rdf:RDF>
      <cc:Work
         rdf:about="">
        <dc:format>image/svg+xml</dc:format>
        <dc:type
           rdf:resource="http://purl.org/dc/dcmitype/StillImage" />
        <dc:title></dc:title>
      </cc:Work>
    </rdf:RDF>
  </metadata>
  <g
     inkscape:label="Camada 1"
     inkscape:groupmode="layer"
     id="layer1"
     transform="translate(0,-552.36218)">
    <g
       transform="matrix(14.039966,0,0,-14.039966,-2855.5519,6323.0581)"
       id="g3011">
      <g
         transform="matrix(-0.09143902,0.43251527,0.99581068,0.08782042,230.75011,402.3499)"
         style=""
         id="text12">
        <path
           d="m 12.605538,-14.598326 c 0,-2.548911 -2.6416025,-2.780633 -3.7306828,-2.780633 -2.989178,0 -5.3527195,1.737898 -5.3527195,4.147778 0,3.4062727 4.7502489,4.8197687 4.7502489,8.7821675 0,1.9464414 -1.1354269,3.0818687 -2.6879457,3.0818687 -1.4830031,0 -2.2245068,-1.0659106 -2.2245068,-2.2245068 0,-1.5988626 1.4598338,-2.1781628 2.7111176,-2.1781628 -0.069516,-1.20494 -1.2281139,-1.5293485 -2.0391312,-1.5293485 -1.6220345,0 -3.40627597,1.2976315 -3.40627597,3.8001991 0,2.82697455 2.27085327,3.98557466 4.91245247,3.98557466 3.3599287,0 6.511317,-1.90010346 6.511317,-5.79298636 0,-5.0051355 -5.2136881,-5.4685825 -5.2136881,-8.8748555 0,-1.390315 0.8573633,-2.108647 2.131819,-2.108647 1.2744561,0 1.7147241,0.741503 1.7147241,1.552521 0,0.764673 -0.417096,1.622036 -1.0427376,1.992787 0.3012349,0.347579 0.6488146,0.486611 1.0659096,0.486611 1.158596,0 1.900099,-0.996395 1.900099,-2.340367"
           style="font-size:23.17194557px;font-variant:normal;font-weight:normal;writing-mode:lr-tb;fill:#272f47;fill-opacity:1;fill-rule:nonzero;stroke:none;font-family:'Lobster 1.4';-inkscape-font-specification:'Lobster1.4'"
           id="path3079" />
      </g>
      <path
         d="m 204.8999,392.3999 c -1.1001,-1.3999 -1.6001,-3 -1.5,-4.6001 0.1001,-1.5996 0.8999,-2.8999 2.1001,-3.8999 1.2998,-1 2.7002,-1.2998 4.2998,-1 0.6001,0.1001 1.3003,0.3999 1.9004,0.6001 -1.3003,0 -2.4004,0.3999 -3.5,1.2998 -1.2002,0.9004 -2,2.1001 -2.2002,3.6001 -0.2998,1.3999 0,2.7002 0.7998,3.8003 0.9004,1.0996 2,1.6997 3.5,1.8999 1.5,0.1001 2.8003,-0.3003 4.1001,-1.2002 -0.2998,0.3999 -0.6997,0.7002 -1.1001,1.1001 -1.2998,0.8999 -2.6997,1.2998 -4.3999,0.8999 -1.6001,-0.2998 -2.8999,-1.1001 -4,-2.5 z"
         style="fill:#272f47;fill-opacity:1;fill-rule:nonzero;stroke:none"
         id="path18"
         inkscape:connector-curvature="0" />
      <path
         d="m 222.2998,399.8999 c -4.1997,0 -7.8999,0.3999 -10.5996,1 -2.9004,0.7002 -4.4004,1.5 -4.4004,2.5 0,0.3999 0.2002,0.8003 0.8003,1.2002 -1.8003,-0.7002 -2.8003,-1.3003 -2.8003,-2.2002 0.1001,-1 1.7002,-2 5,-2.7998 3.1001,-0.8003 7.1001,-1.2002 11.9004,-1.2002 4.8999,0 8.7998,0.3999 11.8999,1.2002 3.2998,0.7998 4.8999,1.7998 4.8999,2.7998 0,0.7002 -0.7002,1.3999 -2,1.8999 0.2998,-0.1997 0.5,-0.5 0.5,-0.8999 0,-1 -1.5,-1.7998 -4.5,-2.5 -2.7998,-0.6001 -6.3999,-1 -10.7002,-1 z"
         style="fill:#272f47;fill-opacity:1;fill-rule:nonzero;stroke:none"
         id="path20"
         inkscape:connector-curvature="0" />
      <path
         d="m 234.2002,397.1001 c -3.1001,-0.7002 -7.1001,-1.2002 -11.9004,-1.2002 -4.8999,0 -8.8999,0.5 -12,1.2002 -2.7998,0.6997 -4.2998,1.5 -4.7998,2.2998 0,0 0,0 0,0 0.5,-3.5 1.7002,-6.7998 3.2998,-9.6997 1.2002,-1.8003 2.4004,-3.4004 3.6001,-5.1001 0.5,-1 0.8999,-2 1.1001,-3 0.7998,-1.1001 1.8999,-1.8003 3.2998,-2.2002 1.7002,-0.6001 3.5,-0.8999 5.3003,-0.7998 0,0 0.1997,0 0.1997,0 1.8003,-0.1001 3.7002,0.1997 5.5,0.7998 1.3003,0.3999 2.4004,1.1001 3.2002,2.2002 0,0 0.1001,0 0.1001,0 0,0 0,0 0,0 0.1997,1 0.5,2 1,3 1.1997,1.6997 2.3999,3.2998 3.6001,5.1001 1.5996,2.8999 2.6997,6.1997 3.2998,9.6997 -0.6001,-0.8999 -2.1001,-1.6997 -4.7998,-2.2998 z"
         style="fill:#272f47;fill-opacity:1;fill-rule:nonzero;stroke:none"
         id="path22"
         inkscape:connector-curvature="0" />
    </g>
  </g>
</svg>
